<svg width="136" height="273" fill="none" xmlns="http://www.w3.org/2000/svg">
  <path d="M8.5 27a1.5 1.5 0 100-3 1.5 1.5 0 000 3zM25.5 27a1.5 1.5 0 100-3 1.5 1.5 0 000 3zM42.5 27a1.5 1.5 0 100-3 1.5 1.5 0 000 3z" fill="#FF9332"/>
  <path d="M59.5 27a1.5 1.5 0 100-3 1.5 1.5 0 000 3z" fill="#C07543"/>
  <path d="M76.5 27a1.5 1.5 0 100-3 1.5 1.5 0 000 3zM93.5 27a1.5 1.5 0 100-3 1.5 1.5 0 000 3zM110.5 27a1.5 1.5 0 100-3 1.5 1.5 0 000 3z" fill="#FF9332"/>
  <path d="M127.5 27a1.5 1.5 0 100-3 1.5 1.5 0 000 3z" fill="#C07543"/>
  <path d="M8.5 10a1.5 1.5 0 100-3 1.5 1.5 0 000 3z" fill="#FFCD96"/>
  <path d="M25.5 10a1.5 1.5 0 100-3 1.5 1.5 0 000 3zM42.5 10a1.5 1.5 0 100-3 1.5 1.5 0 000 3zM59.5 10a1.5 1.5 0 100-3 1.5 1.5 0 000 3zM76.5 10a1.5 1.5 0 100-3 1.5 1.5 0 000 3zM93.5 10a1.5 1.5 0 100-3 1.5 1.5 0 000 3zM110.5 10a1.5 1.5 0 100-3 1.5 1.5 0 000 3zM127.5 10a1.5 1.5 0 100-3 1.5 1.5 0 000 3zM8.5 62a1.5 1.5 0 100-3 1.5 1.5 0 000 3z" fill="#FF9332"/>
  <path d="M25.5 62a1.5 1.5 0 100-3 1.5 1.5 0 000 3z" fill="#C07543"/>
  <path d="M42.5 62a1.5 1.5 0 100-3 1.5 1.5 0 000 3z" fill="#FF9332"/>
  <path d="M59.5 62a1.5 1.5 0 100-3 1.5 1.5 0 000 3z" fill="#FFCD96"/>
  <path d="M76.5 62a1.5 1.5 0 100-3 1.5 1.5 0 000 3zM93.5 62a1.5 1.5 0 100-3 1.5 1.5 0 000 3z" fill="#FF9332"/>
  <path d="M110.5 62a1.5 1.5 0 100-3 1.5 1.5 0 000 3z" fill="#C07543"/>
  <path d="M127.5 62a1.5 1.5 0 100-3 1.5 1.5 0 000 3zM8.5 45a1.5 1.5 0 100-3 1.5 1.5 0 000 3zM25.5 45a1.5 1.5 0 100-3 1.5 1.5 0 000 3zM42.5 45a1.5 1.5 0 100-3 1.5 1.5 0 000 3zM59.5 45a1.5 1.5 0 100-3 1.5 1.5 0 000 3zM76.5 45a1.5 1.5 0 100-3 1.5 1.5 0 000 3zM93.5 45a1.5 1.5 0 100-3 1.5 1.5 0 000 3zM110.5 45a1.5 1.5 0 100-3 1.5 1.5 0 000 3zM127.5 45a1.5 1.5 0 100-3 1.5 1.5 0 000 3zM8.5 96a1.5 1.5 0 100-3 1.5 1.5 0 000 3zM25.5 96a1.5 1.5 0 100-3 1.5 1.5 0 000 3zM42.5 96a1.5 1.5 0 100-3 1.5 1.5 0 000 3zM59.5 96a1.5 1.5 0 100-3 1.5 1.5 0 000 3zM76.5 96a1.5 1.5 0 100-3 1.5 1.5 0 000 3zM93.5 96a1.5 1.5 0 100-3 1.5 1.5 0 000 3zM110.5 96a1.5 1.5 0 100-3 1.5 1.5 0 000 3zM127.5 96a1.5 1.5 0 100-3 1.5 1.5 0 000 3zM8.5 79a1.5 1.5 0 100-3 1.5 1.5 0 000 3zM25.5 79a1.5 1.5 0 100-3 1.5 1.5 0 000 3z" fill="#FF9332"/>
  <path d="M42.5 79a1.5 1.5 0 100-3 1.5 1.5 0 000 3z" fill="#C07543"/>
  <path d="M59.5 79a1.5 1.5 0 100-3 1.5 1.5 0 000 3zM76.5 79a1.5 1.5 0 100-3 1.5 1.5 0 000 3zM93.5 79a1.5 1.5 0 100-3 1.5 1.5 0 000 3z" fill="#FF9332"/>
  <path d="M110.5 79a1.5 1.5 0 100-3 1.5 1.5 0 000 3z" fill="#FFCD96"/>
  <path d="M127.5 79a1.5 1.5 0 100-3 1.5 1.5 0 000 3zM8.5 130a1.5 1.5 0 100-3 1.5 1.5 0 000 3zM25.5 130a1.5 1.5 0 100-3 1.5 1.5 0 000 3zM42.5 130a1.5 1.5 0 100-3 1.5 1.5 0 000 3zM59.5 130a1.5 1.5 0 100-3 1.5 1.5 0 000 3z" fill="#FF9332"/>
  <path d="M76.5 130a1.5 1.5 0 100-3 1.5 1.5 0 000 3zM93.5 130a1.5 1.5 0 100-3 1.5 1.5 0 000 3z" fill="#FFCD96"/>
  <path d="M110.5 130a1.5 1.5 0 100-3 1.5 1.5 0 000 3zM127.5 130a1.5 1.5 0 100-3 1.5 1.5 0 000 3zM8.5 113a1.5 1.5 0 100-3 1.5 1.5 0 000 3zM25.5 113a1.5 1.5 0 100-3 1.5 1.5 0 000 3zM42.5 113a1.5 1.5 0 100-3 1.5 1.5 0 000 3zM59.5 113a1.5 1.5 0 100-3 1.5 1.5 0 000 3zM76.5 113a1.5 1.5 0 100-3 1.5 1.5 0 000 3zM93.5 113a1.5 1.5 0 100-3 1.5 1.5 0 000 3z" fill="#FF9332"/>
  <path d="M110.5 113a1.5 1.5 0 100-3 1.5 1.5 0 000 3z" fill="#FFCD96"/>
  <path d="M127.5 113a1.5 1.5 0 100-3 1.5 1.5 0 000 3zM8.5 164a1.5 1.5 0 100-3 1.5 1.5 0 000 3zM25.5 164a1.5 1.5 0 100-3 1.5 1.5 0 000 3zM42.5 164a1.5 1.5 0 100-3 1.5 1.5 0 000 3zM59.5 164a1.5 1.5 0 100-3 1.5 1.5 0 000 3zM76.5 164a1.5 1.5 0 100-3 1.5 1.5 0 000 3z" fill="#FF9332"/>
  <path d="M93.5 164a1.5 1.5 0 100-3 1.5 1.5 0 000 3z" fill="#C07543"/>
  <path d="M110.5 164a1.5 1.5 0 100-3 1.5 1.5 0 000 3z" fill="#FF9332"/>
  <path d="M127.5 164a1.5 1.5 0 100-3 1.5 1.5 0 000 3z" fill="#FFCD96"/>
  <path d="M8.5 147a1.5 1.5 0 100-3 1.5 1.5 0 000 3z" fill="#FF9332"/>
  <path d="M25.5 147a1.5 1.5 0 100-3 1.5 1.5 0 000 3z" fill="#FFCD96"/>
  <path d="M42.5 147a1.5 1.5 0 100-3 1.5 1.5 0 000 3zM59.5 147a1.5 1.5 0 100-3 1.5 1.5 0 000 3zM76.5 147a1.5 1.5 0 100-3 1.5 1.5 0 000 3z" fill="#FF9332"/>
  <path d="M93.5 147a1.5 1.5 0 100-3 1.5 1.5 0 000 3z" fill="#FFCD96"/>
  <path d="M110.5 147a1.5 1.5 0 100-3 1.5 1.5 0 000 3zM127.5 147a1.5 1.5 0 100-3 1.5 1.5 0 000 3zM8.5 198a1.5 1.5 0 100-3 1.5 1.5 0 000 3zM25.5 198a1.5 1.5 0 100-3 1.5 1.5 0 000 3zM42.5 198a1.5 1.5 0 100-3 1.5 1.5 0 000 3zM59.5 198a1.5 1.5 0 100-3 1.5 1.5 0 000 3zM76.5 198a1.5 1.5 0 100-3 1.5 1.5 0 000 3zM93.5 198a1.5 1.5 0 100-3 1.5 1.5 0 000 3zM110.5 198a1.5 1.5 0 100-3 1.5 1.5 0 000 3zM127.5 198a1.5 1.5 0 100-3 1.5 1.5 0 000 3zM8.5 181a1.5 1.5 0 100-3 1.5 1.5 0 000 3z" fill="#FF9332"/>
  <path d="M25.5 181a1.5 1.5 0 100-3 1.5 1.5 0 000 3z" fill="#FFCD96"/>
  <path d="M42.5 181a1.5 1.5 0 100-3 1.5 1.5 0 000 3zM59.5 181a1.5 1.5 0 100-3 1.5 1.5 0 000 3zM76.5 181a1.5 1.5 0 100-3 1.5 1.5 0 000 3zM93.5 181a1.5 1.5 0 100-3 1.5 1.5 0 000 3zM110.5 181a1.5 1.5 0 100-3 1.5 1.5 0 000 3zM127.5 181a1.5 1.5 0 100-3 1.5 1.5 0 000 3zM8.5 232a1.5 1.5 0 100-3 1.5 1.5 0 000 3zM25.5 232a1.5 1.5 0 100-3 1.5 1.5 0 000 3zM42.5 232a1.5 1.5 0 100-3 1.5 1.5 0 000 3z" fill="#FF9332"/>
  <path d="M59.5 232a1.5 1.5 0 100-3 1.5 1.5 0 000 3z" fill="#C07543"/>
  <path d="M76.5 232a1.5 1.5 0 100-3 1.5 1.5 0 000 3zM93.5 232a1.5 1.5 0 100-3 1.5 1.5 0 000 3zM110.5 232a1.5 1.5 0 100-3 1.5 1.5 0 000 3zM127.5 232a1.5 1.5 0 100-3 1.5 1.5 0 000 3zM8.5 215a1.5 1.5 0 100-3 1.5 1.5 0 000 3zM25.5 215a1.5 1.5 0 100-3 1.5 1.5 0 000 3z" fill="#FF9332"/>
  <path d="M42.5 215a1.5 1.5 0 100-3 1.5 1.5 0 000 3z" fill="#C07543"/>
  <path d="M59.5 215a1.5 1.5 0 100-3 1.5 1.5 0 000 3z" fill="#FFCD96"/>
  <path d="M76.5 215a1.5 1.5 0 100-3 1.5 1.5 0 000 3zM93.5 215a1.5 1.5 0 100-3 1.5 1.5 0 000 3zM110.5 215a1.5 1.5 0 100-3 1.5 1.5 0 000 3zM127.5 215a1.5 1.5 0 100-3 1.5 1.5 0 000 3zM8.5 266a1.5 1.5 0 100-3 1.5 1.5 0 000 3zM25.5 266a1.5 1.5 0 100-3 1.5 1.5 0 000 3z" fill="#FF9332"/>
  <path d="M42.5 266a1.5 1.5 0 100-3 1.5 1.5 0 000 3z" fill="#FFCD96"/>
  <path d="M59.5 266a1.5 1.5 0 100-3 1.5 1.5 0 000 3zM76.5 266a1.5 1.5 0 100-3 1.5 1.5 0 000 3zM93.5 266a1.5 1.5 0 100-3 1.5 1.5 0 000 3z" fill="#FF9332"/>
  <path d="M110.5 266a1.5 1.5 0 100-3 1.5 1.5 0 000 3z" fill="#FFCD96"/>
  <path d="M127.5 266a1.5 1.5 0 100-3 1.5 1.5 0 000 3zM8.5 249a1.5 1.5 0 100-3 1.5 1.5 0 000 3zM25.5 249a1.5 1.5 0 100-3 1.5 1.5 0 000 3zM42.5 249a1.5 1.5 0 100-3 1.5 1.5 0 000 3zM59.5 249a1.5 1.5 0 100-3 1.5 1.5 0 000 3zM76.5 249a1.5 1.5 0 100-3 1.5 1.5 0 000 3zM93.5 249a1.5 1.5 0 100-3 1.5 1.5 0 000 3zM110.5 249a1.5 1.5 0 100-3 1.5 1.5 0 000 3zM127.5 249a1.5 1.5 0 100-3 1.5 1.5 0 000 3z" fill="#FF9332"/>
</svg>
