<svg t="1683615282412" class="icon" viewBox="0 0 1024 1024" version="1.1" xmlns="http://www.w3.org/2000/svg" p-id="5561" width="200" height="200"><path d="M968.314798 101.995825H535.28442V25.821728a25.821728 25.821728 0 0 0-51.643455 0v76.174097H51.643456a50.868804 50.868804 0 0 0-51.643456 50.868804v560.718823a51.643456 51.643456 0 0 0 51.643456 50.997913h259.508366l-80.176465 220.646665a25.821728 25.821728 0 1 0 47.770196 17.429666l86.631897-238.076331h118.909058v152.993738a25.821728 25.821728 0 0 0 51.643456 0V764.581365h118.779948l86.631897 238.076331a25.821728 25.821728 0 0 0 23.239556 17.300558 25.821728 25.821728 0 0 0 8.779387-1.549304 25.821728 25.821728 0 0 0 15.23482-32.664486l-80.305574-221.163099H968.314798a51.643456 51.643456 0 0 0 51.643456-50.997913V152.864629a50.868804 50.868804 0 0 0-51.643456-50.868804z m0 611.587627H51.643456V152.864629h916.671342z" fill="#759bc7" p-id="5562"></path><path d="M254.860455 662.714648h509.72091a25.821728 25.821728 0 1 0 0-50.997913H254.860455a25.821728 25.821728 0 0 0 0 50.997913z" fill="#759bc7" p-id="5563"></path></svg>
