<svg t="1683615186958" class="icon" viewBox="0 0 1210 1024" version="1.1" xmlns="http://www.w3.org/2000/svg" p-id="3364" width="200" height="200"><path d="M183.687107 1023.999958H38.963932a38.963932 38.963932 0 0 1-38.963932-38.963932V38.963932A38.963932 38.963932 0 0 1 38.963932 0h144.723175a38.963932 38.963932 0 0 1 38.963932 38.963932v946.072094a38.963932 38.963932 0 0 1-38.963932 38.963932z m-139.156899-44.530207h133.590623V44.530208H44.530208zM450.951847 1023.999958H306.145178a38.963932 38.963932 0 0 1-38.963932-38.963932V38.963932a38.963932 38.963932 0 0 1 38.963932-38.963932h144.723175a38.963932 38.963932 0 0 1 38.963932 38.963932v946.072094a38.963932 38.963932 0 0 1-38.880438 38.963932z m-139.156899-44.530207h133.590623V44.530208H311.711454z" fill="#759bc7" p-id="3365"></path><path d="M550.620305 159.603932l154.281267-89.074331 489.734875 848.245686-154.281267 89.074331-489.734875-848.245686Z" fill="#759bc7" p-id="3366"></path><path d="M1046.52946 1023.999958a38.963932 38.963932 0 0 1-33.801211-19.481966L539.692202 185.203917a38.963932 38.963932 0 0 1 14.263582-53.227514l125.366451-72.361587a38.963932 38.963932 0 0 1 53.213598 14.263582l473.036047 819.300159a38.963932 38.963932 0 0 1-14.263582 53.227514l-125.36645 72.361588a38.671702 38.671702 0 0 1-19.412388 5.232299z m-465.493743-856.2324L1048.505488 977.43806l115.722878-66.795312L696.758594 100.944415z" fill="#759bc7" p-id="3367"></path></svg>
