<svg t="1671598783197" class="icon" viewBox="0 0 1024 1024" version="1.1" xmlns="http://www.w3.org/2000/svg" p-id="6575" width="200" height="200"><path d="M907.5 843h-791c-19.3 0-35 15.7-35 35s15.7 35 35 35h791.1c19.3 0 35-15.7 35-35s-15.7-35-35.1-35zM249.6 556.3l239.7 197.9c0.2 0.2 0.5 0.4 0.7 0.5 0.1 0.1 0.2 0.2 0.4 0.3 0.6 0.4 1.2 0.9 1.8 1.3 0.1 0.1 0.2 0.1 0.3 0.2 3 2 6.3 3.5 9.7 4.4 1.8 0.5 3.6 0.9 5.5 1.1h0.4c0.5 0 1 0.1 1.4 0.1h4.5c0.4 0 0.8-0.1 1.2-0.1 0.2 0 0.4 0 0.6-0.1 0.4 0 0.8-0.1 1.2-0.2 0.2 0 0.4-0.1 0.6-0.1 0.5-0.1 1.1-0.2 1.6-0.3 0.2 0 0.3-0.1 0.5-0.1 0.4-0.1 0.8-0.2 1.1-0.3 0.3-0.1 0.5-0.1 0.8-0.2l0.9-0.3c0.3-0.1 0.6-0.2 0.8-0.3 0.2-0.1 0.5-0.2 0.7-0.3 1.1-0.4 2.2-0.9 3.3-1.4 0.1-0.1 0.3-0.1 0.4-0.2 0.3-0.2 0.7-0.4 1-0.6 0.1-0.1 0.3-0.2 0.4-0.2 0.4-0.2 0.7-0.4 1-0.6 0.1 0 0.2-0.1 0.2-0.1 1.1-0.7 2.2-1.5 3.2-2.3l0.3-0.3 240.5-197.9c14.9-12.3 17.1-34.3 4.8-49.3-12.3-14.9-34.3-17.1-49.3-4.8L546.6 653V146c0-19.3-15.7-35-35-35s-35 15.7-35 35v506.9L294.1 502.3c-14.9-12.3-37-10.2-49.3 4.7-12.2 14.9-10.1 37 4.8 49.3z" fill="rgb(20, 188, 62)" p-id="6576"></path></svg>
