<svg  class="icon" viewBox="0 0 1024 1024" version="1.1" xmlns="http://www.w3.org/2000/svg" width="200" height="200"><path d="M483.328 746.837333a44.032 44.032 0 0 0 63.488 0l254.634667-256.682666a45.056 45.056 0 1 0-63.488-63.488l-187.050667 185.344V182.272c0-27.306667-12.970667-45.738667-38.912-45.738667a43.008 43.008 0 0 0-45.397333 45.397334v429.738666L283.306667 426.325333a55.978667 55.978667 0 0 0-63.488 9.216 44.032 44.032 0 0 0 0 63.488z m359.424 68.266667H181.248c-27.306667 0-45.397333 7.509333-45.397333 34.133333s18.090667 40.618667 45.397333 40.618667h661.504c27.306667 0 45.397333-13.312 45.397333-40.618667s-18.090667-33.792-45.397333-33.792z" fill="#759bc7" ></path></svg>