
<svg t="1683615385175" class="icon" viewBox="0 0 1024 1024" version="1.1" xmlns="http://www.w3.org/2000/svg" p-id="9340" width="200" height="200"><path d="M512 951.893333A439.893333 439.893333 0 1 1 951.893333 512 439.893333 439.893333 0 0 1 512 951.893333zM512 0a512 512 0 1 0 512 512A512 512 0 0 0 512 0z m39.68 551.68a55.893333 55.893333 0 1 1 0-79.36 55.893333 55.893333 0 0 1 0 79.36zM521.386667 384A128 128 0 0 0 384 521.386667L285.866667 738.133333l216.746666-98.133333A128 128 0 0 0 640 502.613333l98.133333-216.746666z" fill="#759bc7" p-id="9341"></path></svg>
