<svg t="1683615330416" class="icon" viewBox="0 0 1133 1024" version="1.1" xmlns="http://www.w3.org/2000/svg" p-id="6518" width="200" height="200"><path d="M1132.683428 349.936039V341.403584c2.133114-8.532455 0-17.06491-2.133114-25.597366l-127.986828-277.304794c-2.133114-8.532455-6.399341-17.06491-12.798683-23.464252-19.198024-17.06491-38.396048-14.931797-46.928503-14.931796H189.847128c-8.532455 0-27.730479-2.133114-44.79539 12.798683-6.399341 6.399341-10.665569 14.931797-12.798682 23.464251l-127.986828 273.038567c-4.266228 8.532455-4.266228 19.198024-2.133114 29.863593-2.133114 2.133114-2.133114 6.399341-2.133114 10.665569 0 83.191438 59.727186 153.584194 140.785511 170.649104V981.337724c0 23.464252 19.198024 42.662276 42.662276 42.662276h767.920968c23.464252 0 42.662276-19.198024 42.662276-42.662276V520.585143c78.925211-17.06491 138.652397-87.457666 138.652397-170.649104zM482.083719 917.34431v-170.649104h170.649104v170.649104h-170.649104z m255.973656 21.331138V725.364068c0-36.262935-27.730479-63.993414-63.993414-63.993414h-213.31138c-36.262935 0-63.993414 27.730479-63.993414 63.993414v213.31138h-170.649104V514.185802c31.996707-10.665569 57.594073-27.730479 78.92521-51.194731 31.996707 36.262935 78.925211 59.727186 130.119942 59.727186 53.327845 0 98.123235-23.464252 130.119942-59.727186 31.996707 36.262935 78.925211 59.727186 130.119942 59.727186s98.123235-23.464252 130.119942-59.727186c21.331138 23.464252 49.061617 42.662276 78.92521 51.194731V938.675448h-166.382876zM959.90121 437.393705c-49.061617 0-87.457666-40.529162-87.457666-87.457666 0-23.464252-19.198024-42.662276-42.662276-42.662276s-42.662276 19.198024-42.662276 42.662276c0 49.061617-40.529162 87.457666-87.457665 87.457666-49.061617 0-87.457666-40.529162-87.457666-87.457666 0-23.464252-19.198024-42.662276-42.662276-42.662276s-42.662276 19.198024-42.662276 42.662276c0 49.061617-40.529162 87.457666-87.457666 87.457666s-87.457666-40.529162-87.457666-87.457666c0-23.464252-19.198024-42.662276-42.662276-42.662276s-42.662276 19.198024-42.662276 42.662276c0 49.061617-40.529162 87.457666-87.457666 87.457666-49.061617 0-87.457666-40.529162-87.457666-87.457666 0-4.266228 0-6.399341-2.133113-10.665569L202.645811 85.429928h725.258692l119.454373 258.10677v6.399341c0 49.061617-38.396048 87.457666-87.457666 87.457666z" fill="#759bc7" p-id="6519"></path></svg>
